<?xml version="1.0" standalone="no"?>
<!DOCTYPE svg PUBLIC "-//W3C//DTD SVG 20010904//EN"
  "http://www.w3.org/TR/2001/REC-SVG-20010904/DTD/svg10.dtd">
<svg version="1.0" xmlns="http://www.w3.org/2000/svg"
     width="815.000000pt" height="815.000000pt" viewBox="0 0 815.000000 815.000000"
     preserveAspectRatio="xMidYMid meet">
  <metadata>
    Created by potrace 1.11, written by Peter Selinger 2001-2013
  </metadata>
  <g transform="translate(0.000000,815.000000) scale(0.100000,-0.100000)"
     fill="#000000" stroke="none">
    <path d="M4025 8131 c-22 -10 -44 -19 -50 -21 -5 -1 -26 -11 -45 -21 -19 -11
-38 -19 -43 -19 -5 0 -32 -11 -60 -24 -90 -41 -139 -62 -252 -111 -103 -44
-147 -63 -220 -95 -16 -8 -32 -14 -35 -15 -10 -3 -61 -25 -108 -46 -70 -32
-115 -52 -237 -104 -105 -45 -140 -61 -237 -104 -24 -10 -72 -31 -108 -46 -36
-15 -93 -40 -128 -56 -35 -16 -65 -29 -67 -29 -3 0 -28 -11 -57 -24 -29 -13
-98 -43 -153 -66 -55 -23 -109 -47 -120 -53 -11 -6 -22 -12 -25 -12 -11 -3
-551 -237 -700 -303 -19 -9 -37 -16 -40 -17 -7 -2 -80 -33 -195 -84 -79 -35
-86 -38 -158 -70 -38 -17 -75 -31 -83 -31 -8 0 -14 -4 -14 -10 0 -5 -5 -10
-10 -10 -9 0 -165 -64 -265 -110 -22 -10 -85 -37 -140 -60 -55 -23 -104 -46
-110 -51 -5 -5 -17 -9 -26 -9 -31 0 -29 -17 4 -33 37 -18 130 -60 137 -62 8
-3 80 -34 127 -56 24 -10 45 -19 47 -19 3 0 35 -14 73 -31 37 -16 77 -34 88
-39 11 -4 38 -16 60 -26 22 -10 42 -19 45 -20 3 0 23 -9 45 -18 22 -10 123
-54 225 -98 102 -44 203 -88 225 -98 22 -10 105 -46 185 -80 80 -34 163 -70
185 -80 22 -10 74 -32 115 -50 41 -18 95 -41 120 -52 25 -11 60 -26 78 -34 17
-8 47 -20 65 -28 17 -8 55 -24 82 -36 58 -25 93 -40 155 -68 25 -11 90 -39
145 -62 55 -23 123 -53 150 -65 44 -20 127 -56 235 -102 19 -8 53 -23 75 -33
22 -10 56 -25 75 -33 19 -8 89 -38 155 -67 66 -29 140 -61 165 -72 56 -24 69
-30 153 -67 38 -17 74 -31 81 -31 6 0 16 -4 21 -9 6 -5 38 -21 72 -35 35 -14
87 -37 117 -51 55 -25 107 -47 116 -50 3 0 27 -11 54 -23 27 -12 52 -22 56
-22 6 0 222 92 305 130 99 45 157 70 162 70 3 0 29 11 57 24 74 34 121 55 311
136 94 40 193 83 220 95 28 13 131 58 230 100 99 43 204 88 233 101 29 13 79
35 112 49 33 14 84 36 114 50 30 14 57 25 60 25 3 0 44 18 91 40 47 22 88 40
91 40 5 0 48 19 162 71 35 16 66 29 68 29 3 0 30 11 60 25 30 14 82 37 117 51
34 15 80 34 102 44 22 10 105 46 185 81 143 61 216 93 295 129 22 10 69 30
105 45 36 15 88 37 115 50 28 12 95 41 150 65 55 23 124 53 153 66 29 13 55
24 58 24 3 0 31 13 62 28 31 16 60 29 64 31 38 11 79 34 72 40 -5 4 -34 18
-64 30 -30 13 -122 52 -205 88 -184 80 -199 86 -255 111 -25 11 -79 34 -120
52 -41 18 -94 41 -117 51 -40 18 -91 40 -103 44 -8 3 -78 34 -138 61 -29 13
-55 24 -57 24 -3 0 -39 16 -81 35 -41 19 -77 35 -80 35 -2 0 -32 13 -66 28
-35 16 -88 39 -118 52 -81 34 -161 70 -195 88 -16 9 -32 16 -35 15 -3 -1 -23
7 -45 17 -22 10 -71 31 -110 48 -38 16 -88 38 -110 48 -22 9 -42 18 -45 19
-12 4 -63 26 -103 44 -23 10 -76 33 -117 51 -41 18 -88 38 -105 45 -16 7 -55
24 -85 38 -30 14 -104 46 -165 72 -60 26 -123 53 -140 60 -16 7 -136 59 -265
115 -129 56 -248 108 -265 115 -79 36 -564 245 -567 245 -2 0 -21 -9 -43 -19z"/>
    <path d="M290 4478 l0 -961 54 -51 c29 -28 99 -94 156 -146 56 -52 124 -116
151 -141 26 -25 69 -65 96 -89 42 -37 190 -175 334 -310 63 -59 236 -220 275
-256 17 -16 82 -76 144 -134 62 -58 127 -118 144 -134 50 -46 246 -229 281
-261 26 -25 172 -161 274 -255 15 -14 81 -75 147 -136 65 -62 135 -126 154
-144 19 -18 65 -60 101 -94 36 -33 117 -108 179 -166 62 -58 127 -118 144
-135 18 -16 81 -75 141 -130 59 -55 122 -113 140 -130 17 -16 78 -73 134 -125
57 -52 124 -115 150 -140 26 -25 96 -90 156 -145 284 -263 377 -349 399 -373
l22 -23 25 21 c13 12 74 69 136 127 62 58 121 113 132 122 18 16 190 176 281
261 20 19 85 80 145 135 59 55 124 116 145 135 20 19 86 80 145 135 59 55 125
116 145 135 34 32 188 175 280 260 54 50 259 240 290 270 32 30 228 212 274
255 18 17 81 75 140 130 59 55 122 114 140 130 18 17 85 78 147 137 63 58 128
119 144 134 30 27 230 213 309 288 23 21 81 75 130 120 48 44 105 97 125 116
41 39 259 242 306 284 17 16 79 74 139 129 59 56 130 122 157 147 l49 45 0
964 c0 766 -3 962 -12 958 -62 -25 -229 -99 -253 -111 -16 -9 -37 -16 -46 -16
-8 0 -19 -4 -25 -9 -5 -5 -36 -21 -69 -34 -33 -14 -110 -48 -172 -75 -62 -28
-114 -47 -117 -44 -4 3 -6 1 -6 -5 0 -6 -11 -14 -24 -17 -14 -3 -53 -19 -88
-35 -35 -16 -130 -58 -213 -94 -82 -35 -172 -75 -200 -87 -27 -12 -59 -26 -70
-30 -11 -5 -40 -17 -65 -28 -25 -11 -76 -34 -114 -51 -38 -17 -75 -31 -82 -31
-8 0 -14 -4 -14 -10 0 -5 -6 -10 -13 -10 -7 0 -60 -21 -117 -46 -106 -46 -178
-78 -215 -94 -11 -4 -40 -17 -65 -28 -25 -11 -94 -41 -155 -67 -60 -26 -130
-56 -155 -67 -25 -11 -133 -59 -240 -105 -107 -46 -210 -91 -227 -99 -56 -24
-95 -41 -183 -79 -47 -21 -109 -48 -138 -61 -29 -13 -55 -24 -58 -24 -3 0 -39
-16 -80 -35 -41 -19 -76 -35 -79 -35 -2 0 -28 -11 -57 -24 -44 -20 -192 -84
-325 -142 -18 -8 -48 -21 -67 -29 -33 -15 -37 -14 -143 31 -59 25 -130 56
-158 69 -27 12 -95 42 -150 65 -86 37 -133 57 -230 100 -113 50 -136 60 -140
60 -2 0 -35 14 -72 31 -37 17 -77 35 -88 39 -11 5 -41 18 -66 29 -25 12 -51
21 -57 21 -7 0 -12 5 -12 10 0 6 -7 10 -15 10 -8 0 -23 4 -33 9 -14 8 -165 74
-587 256 -16 7 -55 24 -85 38 -30 13 -107 46 -170 73 -63 27 -118 53 -122 59
-4 5 -8 7 -8 4 0 -7 -216 84 -227 95 -4 3 -15 6 -25 6 -10 0 -18 5 -18 10 0 6
-6 10 -14 10 -7 0 -49 16 -92 35 -76 34 -91 41 -159 70 -16 7 -46 20 -65 28
-19 9 -114 50 -210 91 -96 42 -184 81 -195 86 -11 5 -42 18 -70 30 -27 12 -59
25 -70 30 -36 17 -207 91 -315 137 -58 24 -128 55 -157 69 -28 13 -54 24 -57
24 -3 0 -6 -433 -6 -962z"/>
  </g>
</svg>
