<?xml version="1.0" encoding="UTF-8" standalone="no"?>
<svg
  xmlns:dc="http://purl.org/dc/elements/1.1/"
  xmlns:cc="http://creativecommons.org/ns#"
  xmlns:rdf="http://www.w3.org/1999/02/22-rdf-syntax-ns#"
  xmlns:svg="http://www.w3.org/2000/svg"
  xmlns="http://www.w3.org/2000/svg"
  xmlns:xlink="http://www.w3.org/1999/xlink"
  xmlns:sodipodi="http://sodipodi.sourceforge.net/DTD/sodipodi-0.dtd"
  xmlns:inkscape="http://www.inkscape.org/namespaces/inkscape"
  width="260.69583mm"
  height="217.23593mm"
  viewBox="0 0 260.69583 217.23593"
  version="1.1"
  id="svg1646"
  inkscape:version="1.0.1 (3bc2e813f5, 2020-09-07)"
  sodipodi:docname="amalinowska_full_logo.svg">
  <defs
    id="defs1640">
    <linearGradient
      inkscape:collect="always"
      id="linearGradient841">
      <stop
        style="stop-color:#034863;stop-opacity:1"
        offset="0"
        id="stop837"/>
      <stop
        style="stop-color:#0691c7;stop-opacity:1"
        offset="0.52104378"
        id="stop867"/>
      <stop
        style="stop-color:#64b4f3;stop-opacity:1"
        offset="1"
        id="stop839"/>
    </linearGradient>
    <linearGradient
      inkscape:collect="always"
      xlink:href="#linearGradient841"
      id="linearGradient843"
      x1="27.214285"
      y1="38.553574"
      x2="184.2634"
      y2="39.309525"
      gradientUnits="userSpaceOnUse"
      gradientTransform="matrix(1.6591377,0,0,1.6591377,-193.15676,144.89834)"/>
  </defs>
  <sodipodi:namedview
    id="base"
    pagecolor="#ffffff"
    bordercolor="#666666"
    borderopacity="1.0"
    inkscape:pageopacity="0.0"
    inkscape:pageshadow="2"
    inkscape:zoom="0.35"
    inkscape:cx="959.38715"
    inkscape:cy="521.67582"
    inkscape:document-units="mm"
    inkscape:current-layer="layer1"
    inkscape:document-rotation="0"
    showgrid="false"
    fit-margin-top="0"
    fit-margin-left="0"
    fit-margin-right="0"
    fit-margin-bottom="0"
    inkscape:window-width="1858"
    inkscape:window-height="1057"
    inkscape:window-x="54"
    inkscape:window-y="-8"
    inkscape:window-maximized="1"/>
  <metadata
    id="metadata1643">
    <rdf:RDF>
      <cc:Work
        rdf:about="">
        <dc:format>image/svg+xml</dc:format>
        <dc:type
          rdf:resource="http://purl.org/dc/dcmitype/StillImage"/>
        <dc:title/>
      </cc:Work>
    </rdf:RDF>
  </metadata>
  <g
    inkscape:label="Warstwa 1"
    inkscape:groupmode="layer"
    id="layer1"
    transform="translate(148.00452,-10.13994)">
    <g
      id="g1569"
      transform="matrix(0.6949221,0,0,0.6949221,36.396797,-28.127473)">
      <g
        id="g1561"
        transform="matrix(1.0129681,0,0,1,2.305518,0)">
        <path
          id="rect866"
          style="fill:#034863;fill-opacity:1;stroke-width:9.26846;stroke-linecap:round;stroke-linejoin:round;paint-order:markers fill stroke"
          d="m -177.78339,126.68385 98.719786,43.46727 v 100.49334 l -98.719786,-92.98214 z"
          sodipodi:nodetypes="ccccc"/>
        <path
          id="rect866-8"
          style="fill:#0691c7;fill-opacity:1;stroke-width:9.26846;stroke-linecap:round;stroke-linejoin:round;paint-order:markers fill stroke"
          d="m 19.656188,126.68385 -98.719792,43.46727 v 100.49334 l 98.719792,-92.98215 z"
          sodipodi:nodetypes="ccccc"/>
      </g>
      <g
        id="g1557"
        transform="matrix(1.0129681,0,0,1,2.3543233,0)">
        <path
          sodipodi:type="star"
          style="fill:#315978;fill-opacity:1;stroke-width:9.765;stroke-linecap:round;stroke-linejoin:round;paint-order:markers fill stroke"
          id="path904"
          sodipodi:sides="3"
          sodipodi:cx="75.576248"
          sodipodi:cy="60.476189"
          sodipodi:r1="58.591187"
          sodipodi:r2="29.295593"
          sodipodi:arg1="3.1415927"
          sodipodi:arg2="4.1887902"
          inkscape:flatsided="false"
          inkscape:rounded="0"
          inkscape:randomized="0"
          d="M 16.985062,60.476186 60.928451,35.105461 104.87184,9.7347341 l 0,50.7414549 0,50.741461 -43.943388,-25.370733 z"
          inkscape:transform-center-x="16.407614"
          transform="matrix(1.1201422,0,0,0.85310885,-196.58316,46.762411)"/>
        <path
          sodipodi:type="star"
          style="fill:#64b4f3;fill-opacity:1;stroke-width:9.765;stroke-linecap:round;stroke-linejoin:round;paint-order:markers fill stroke"
          id="path904-3"
          sodipodi:sides="3"
          sodipodi:cx="75.576248"
          sodipodi:cy="60.476189"
          sodipodi:r1="58.591187"
          sodipodi:r2="29.295593"
          sodipodi:arg1="3.1415927"
          sodipodi:arg2="4.1887902"
          inkscape:flatsided="false"
          inkscape:rounded="0"
          inkscape:randomized="0"
          d="M 16.985062,60.476186 60.928451,35.105461 104.87184,9.7347341 l 0,50.7414549 0,50.741461 -43.943388,-25.370733 z"
          inkscape:transform-center-x="-16.407614"
          transform="matrix(-1.1201422,0,0,0.85310885,38.359597,46.762411)"/>
      </g>
    </g>
    <g
      aria-label="amalinowska"
      id="text835"
      style="font-style:normal;font-variant:normal;font-weight:normal;font-stretch:normal;font-size:44.3135px;line-height:0.25;font-family:Aubrey;-inkscape-font-specification:Aubrey;letter-spacing:0px;word-spacing:0px;fill:url(#linearGradient843);fill-opacity:1;stroke:none;stroke-width:1.03859">
      <path
        d="m -126.68972,206.1497 q -0.3102,-2.70313 -1.72823,-4.56429 -1.55097,-2.08274 -4.07684,-2.6145 -0.93059,-0.22157 -2.12705,-0.26588 -3.41214,-0.13294 -6.42546,1.68391 -1.06352,0.62039 -1.9941,1.28509 -1.81686,1.32941 -2.96901,2.65881 -0.62039,0.75333 -0.62039,0.9749 0,0.13294 0.0886,0.22157 0.35451,0.22157 1.90548,-0.88627 1.41803,-1.01921 2.79175,-2.03842 1.77254,-1.28509 2.969,-1.68391 0.93059,-0.3102 1.9498,-0.3102 1.19646,0 2.43724,0.39882 3.10195,0.9749 3.10195,7.84349 0,0.84196 -0.0443,1.86117 -0.0443,0.9749 -0.0443,1.01921 0,0.26588 -0.22157,0.26588 -0.39882,0 -1.24078,-0.75333 -1.41803,-1.28509 -3.58939,-2.03842 -1.46235,-0.53176 -3.01332,-0.53176 -2.17136,0 -3.85527,0.97489 -4.60861,2.65881 -4.60861,8.81839 0,2.65881 0.9749,5.00743 0.6647,1.59528 1.86117,2.52587 1.46234,1.15215 3.72233,1.15215 1.6396,0 3.23489,-0.57608 1.41803,-0.48745 2.57018,-1.3294 2.25999,-1.6396 4.34272,-4.83018 v 5.18468 q 0.13294,1.55098 1.68392,1.55098 h 1.90548 1.3294 v -13.42699 q 0,-4.9188 -0.31019,-7.57761 z m -5.62782,13.4713 q -2.92469,4.87449 -6.5584,4.43135 -3.67802,-0.44313 -4.07684,-5.53919 -0.22157,-2.88037 0.6647,-5.14036 0.35451,-0.9749 1.37372,-1.90548 1.01921,-0.9749 1.99411,-1.10784 1.6396,-0.22157 3.50077,0.88627 1.10783,0.62039 2.34861,1.99411 1.28509,1.37372 1.68392,2.52587 0.13294,0.39882 0.13294,0.84195 0,1.24078 -1.06353,3.01332 z"
        style="font-style:normal;font-variant:normal;font-weight:normal;font-stretch:normal;font-family:Aubrey;-inkscape-font-specification:Aubrey;fill:url(#linearGradient843);fill-opacity:1;stroke-width:1.03859"
        id="path844"/>
      <path
        d="m -124.07527,198.9266 h 3.76665 q 1.19646,0.17725 1.3294,1.50666 v 13.16111 q 4.43135,-9.57172 6.2482,-12.05328 2.21568,-2.61449 4.12116,-2.61449 1.37372,0 2.70312,1.24078 1.59529,1.46234 1.99411,3.9439 0.57608,3.36782 0.35451,10.32504 0.84196,-2.25999 2.12705,-5.05174 2.614493,-5.5835 5.096049,-8.24231 1.949794,-2.12705 3.766648,-2.12705 1.90548,0 3.190571,2.08274 1.107838,1.81685 1.107838,3.89959 v 22.20106 h -3.456453 q -1.550972,0 -1.683913,-1.86117 v -19.54225 q 0,-1.01921 -0.354508,-1.77254 -0.531762,-0.9749 -1.462345,-0.84196 -1.019211,0.13294 -2.392929,2.21568 -3.722338,5.62781 -5.140368,11.38857 -0.6647,1.90548 -0.70901,4.96311 v 3.9439 q 0.31019,1.37372 -1.86117,1.50666 h -3.50077 v -21.75793 q 0,-2.3043 -1.28509,-2.34861 -1.50666,-0.0886 -2.88038,1.77254 -0.3545,0.44313 -1.86116,3.14626 -0.9749,1.77254 -3.50077,7.35604 -0.53176,1.24077 -0.57608,2.48155 v 7.71055 q -0.31019,1.50666 -1.37371,1.6396 h -3.76665 z"
        style="font-style:normal;font-variant:normal;font-weight:normal;font-stretch:normal;font-family:Aubrey;-inkscape-font-specification:Aubrey;fill:url(#linearGradient843);fill-opacity:1;stroke-width:1.03859"
        id="path846"/>
      <path
        d="m -64.650928,206.1497 q -0.310194,-2.70313 -1.728226,-4.56429 -1.550973,-2.08274 -4.076842,-2.6145 -0.930584,-0.22157 -2.127048,-0.26588 -3.41214,-0.13294 -6.425458,1.68391 -1.063524,0.62039 -1.994107,1.28509 -1.816854,1.32941 -2.969005,2.65881 -0.620389,0.75333 -0.620389,0.9749 0,0.13294 0.08863,0.22157 0.354508,0.22157 1.905481,-0.88627 1.418032,-1.01921 2.79175,-2.03842 1.77254,-1.28509 2.969005,-1.68391 0.930583,-0.3102 1.949794,-0.3102 1.196464,0 2.437242,0.39882 3.101945,0.9749 3.101945,7.84349 0,0.84196 -0.04431,1.86117 -0.04431,0.9749 -0.04431,1.01921 0,0.26588 -0.221567,0.26588 -0.398822,0 -1.240778,-0.75333 -1.418032,-1.28509 -3.589394,-2.03842 -1.462345,-0.53176 -3.013318,-0.53176 -2.171361,0 -3.855274,0.97489 -4.608604,2.65881 -4.608604,8.81839 0,2.65881 0.974897,5.00743 0.664702,1.59528 1.861167,2.52587 1.462345,1.15215 3.722334,1.15215 1.639599,0 3.234885,-0.57608 1.418032,-0.48745 2.570183,-1.3294 2.259989,-1.6396 4.342723,-4.83018 v 5.18468 q 0.132941,1.55098 1.683913,1.55098 h 1.905481 1.329405 v -13.42699 q 0,-4.9188 -0.310195,-7.57761 z m -5.627814,13.4713 q -2.924691,4.87449 -6.558398,4.43135 -3.678021,-0.44313 -4.076842,-5.53919 -0.221568,-2.88037 0.664702,-5.14036 0.354508,-0.9749 1.373719,-1.90548 1.01921,-0.9749 1.994107,-1.10784 1.6396,-0.22157 3.500767,0.88627 1.107837,0.62039 2.348615,1.99411 1.285092,1.37372 1.683913,2.52587 0.132941,0.39882 0.132941,0.84195 0,1.24078 -1.063524,3.01332 z"
        style="font-style:normal;font-variant:normal;font-weight:normal;font-stretch:normal;font-family:Aubrey;-inkscape-font-specification:Aubrey;fill:url(#linearGradient843);fill-opacity:1;stroke-width:1.03859"
        id="path848"/>
      <path
        d="m -56.807483,188.95606 v 36.4257 q 0,1.6396 -2.171362,1.77254 h -3.057631 v -36.55864 q 0,-1.55097 1.462345,-1.6396 z"
        style="font-style:normal;font-variant:normal;font-weight:normal;font-stretch:normal;font-family:Aubrey;-inkscape-font-specification:Aubrey;fill:url(#linearGradient843);fill-opacity:1;stroke-width:1.03859"
        id="path850"/>
      <path
        d="m -49.229892,193.29878 q 0,1.06353 -0.75333,1.81686 -0.753329,0.70901 -1.816853,0.70901 -1.063524,0 -1.816854,-0.70901 -0.709016,-0.75333 -0.709016,-1.81686 0,-1.06352 0.709016,-1.81685 0.75333,-0.75333 1.816854,-0.75333 1.063524,0 1.816853,0.75333 0.75333,0.75333 0.75333,1.81685 z m -0.08863,5.5835 v 26.98693 q 0.221567,1.15215 -1.506659,1.24077 h -3.633707 V 200.5662 q -0.177254,-1.59529 1.77254,-1.68392 z"
        style="font-style:normal;font-variant:normal;font-weight:normal;font-stretch:normal;font-family:Aubrey;-inkscape-font-specification:Aubrey;fill:url(#linearGradient843);fill-opacity:1;stroke-width:1.03859"
        id="path852"/>
      <path
        d="m -46.92565,198.88228 3.234886,-0.0443 q 1.90548,0.13294 1.728226,1.59529 v 10.90112 q 0,0.93058 0.221568,0.93058 0.221567,0 0.620389,-0.79764 1.01921,-2.39293 2.038421,-4.78586 1.240778,-2.79175 2.570183,-4.47566 2.570183,-3.32352 5.627814,-3.32352 3.013318,0 4.963112,2.17137 2.437243,3.50076 2.437243,8.64113 v 17.4152 h -3.722334 q -1.373719,-0.0886 -1.373719,-1.28509 v -19.6752 q 0,-1.72823 -0.841956,-2.83607 -0.797643,-1.15215 -2.082735,-1.15215 -1.01921,0 -2.127048,0.70902 -2.082734,1.37372 -3.943901,4.29841 -0.132941,0.22157 -2.880378,5.22899 -1.462345,2.92469 -1.462345,4.20978 0.08863,7.31173 0,9.1729 0,0.35451 -0.132941,0.6647 -0.354508,0.6647 -1.152151,0.6647 l -3.766647,0.0443 0.04431,-28.27202 z"
        style="font-style:normal;font-variant:normal;font-weight:normal;font-stretch:normal;font-family:Aubrey;-inkscape-font-specification:Aubrey;fill:url(#linearGradient843);fill-opacity:1;stroke-width:1.03859"
        id="path854"/>
      <path
        d="m -9.5251074,198.74934 q -5.2289926,0 -8.6411326,5.00743 -3.013318,4.43135 -3.013318,9.92622 0,5.14037 2.747437,9.1729 3.057632,4.51997 8.020744,4.51997 5.273306,0 8.6854455,-5.00742 3.0133179,-4.43135 3.0133179,-9.92622 0,-5.14037 -2.7474369,-9.1729 -3.101945,-4.51998 -8.0650569,-4.51998 z m 5.6721279,14.26895 q -0.1329405,5.49487 -2.0827345,9.30584 -1.9054805,3.76664 -4.475663,3.72233 -2.570183,-0.0886 -4.29841,-3.98822 -1.728226,-3.89958 -1.595286,-9.35014 0.132941,-5.45056 2.038421,-9.26153 1.949794,-3.81096 4.5199771,-3.76664 2.5701829,0.0886 4.2984094,3.98821 1.7282265,3.89959 1.595286,9.35015 z"
        style="font-style:normal;font-variant:normal;font-weight:normal;font-stretch:normal;font-family:Aubrey;-inkscape-font-specification:Aubrey;fill:url(#linearGradient843);fill-opacity:1;stroke-width:1.03859"
        id="path856"/>
      <path
        d="m 1.2430115,198.9266 h 3.4564529 q 1.1964645,-0.13294 1.9054805,1.81685 0.354508,1.01921 6.5140841,23.44184 l 7.799176,-22.77714 q 0.487449,-1.37371 1.728227,-1.46234 h 2.038421 q 0.841956,-0.17726 1.285091,0.79764 0.177254,0.53176 7.799176,24.41674 l 5.051739,-24.50537 q 0.310195,-1.59528 1.639599,-1.72822 h 3.54508 l -9.748969,28.2277 h -3.234886 q -0.841956,0.3545 -1.90548,-2.34862 -0.487449,-1.37372 -7.223101,-20.96028 l -8.065057,21.6693 q -0.576075,1.55097 -1.949794,1.6396 H 8.6433659 Z"
        style="font-style:normal;font-variant:normal;font-weight:normal;font-stretch:normal;font-family:Aubrey;-inkscape-font-specification:Aubrey;fill:url(#linearGradient843);fill-opacity:1;stroke-width:1.03859"
        id="path858"/>
      <path
        d="m 65.098711,205.30774 v -3.58939 q 0.132941,-1.10784 -0.797643,-1.90548 -0.753329,-0.6647 -1.949794,-0.79765 -4.56429,-0.57607 -8.951327,0.0443 -2.880377,0.44313 -4.652917,1.86117 -2.215675,1.77254 -2.171362,4.83017 0.04431,1.9941 1.329405,3.72233 0.974897,1.19647 2.703124,2.34862 1.107837,0.70901 2.259988,1.41803 6.95722,4.96311 6.868593,7.53329 -0.04431,2.12705 -1.861167,3.63371 -1.816854,1.50666 -3.988215,1.50666 -2.481556,0 -3.855275,-0.57608 -1.994107,-0.84195 -4.298409,-3.50076 v 4.16547 q 0.221567,1.06352 2.127048,1.10783 0.531762,0 1.595286,0.0443 1.063524,0 1.506659,0.0443 5.627814,0 8.508192,-0.48745 2.038421,-0.39882 3.146258,-1.37372 1.994108,-1.81685 2.259989,-4.34272 0.221567,-2.39293 -0.709016,-4.12115 -0.930584,-1.72823 -2.836064,-3.2792 -0.709016,-0.57608 -3.54508,-2.52587 -1.240778,-0.84196 -2.215675,-1.55098 -1.462346,-1.06352 -1.994108,-1.50665 -1.107837,-0.93059 -1.683913,-1.81686 -0.487448,-0.75333 -0.487448,-1.6396 0,-1.24078 0.841956,-2.39293 0.88627,-1.19646 2.127048,-1.68391 1.285092,-0.53176 2.880378,-0.53176 1.506659,0 3.013318,0.48745 2.703123,0.84195 4.830171,4.87448 z"
        style="font-style:normal;font-variant:normal;font-weight:normal;font-stretch:normal;font-family:Aubrey;-inkscape-font-specification:Aubrey;fill:url(#linearGradient843);fill-opacity:1;stroke-width:1.03859"
        id="path860"/>
      <path
        d="m 67.402985,188.95606 v 38.19824 h 4.032528 q 0.974897,-0.26588 1.019211,-1.06353 0.08863,-1.37372 0,-9.74897 0,-0.84195 0.443135,-0.84195 0.310194,0 0.753329,0.39882 0.620389,0.53176 10.945434,10.41367 0.797643,0.75333 1.994108,0.84196 h 4.387036 l -15.243843,-14.53483 15.19953,-13.73719 h -2.215675 q -0.443135,0 -1.816854,1.24078 -0.753329,0.57608 -12.363466,12.4521 -0.974897,1.06352 -1.506659,1.06352 -0.531762,0 -0.531762,-0.93058 -0.04431,-3.98822 0,-22.15675 0,-1.50666 -1.240778,-1.59529 z"
        style="font-style:normal;font-variant:normal;font-weight:normal;font-stretch:normal;font-family:Aubrey;-inkscape-font-specification:Aubrey;fill:url(#linearGradient843);fill-opacity:1;stroke-width:1.03859"
        id="path862"/>
      <path
        d="m 112.38112,206.1497 q -0.31019,-2.70313 -1.72822,-4.56429 -1.55098,-2.08274 -4.07685,-2.6145 -0.93058,-0.22157 -2.12704,-0.26588 -3.41214,-0.13294 -6.425461,1.68391 -1.063524,0.62039 -1.994107,1.28509 -1.816854,1.32941 -2.969005,2.65881 -0.620389,0.75333 -0.620389,0.9749 0,0.13294 0.08863,0.22157 0.354508,0.22157 1.905481,-0.88627 1.418032,-1.01921 2.79175,-2.03842 1.77254,-1.28509 2.969001,-1.68391 0.93058,-0.3102 1.94979,-0.3102 1.19647,0 2.43725,0.39882 3.10194,0.9749 3.10194,7.84349 0,0.84196 -0.0443,1.86117 -0.0443,0.9749 -0.0443,1.01921 0,0.26588 -0.22157,0.26588 -0.39882,0 -1.24078,-0.75333 -1.41803,-1.28509 -3.58939,-2.03842 -1.46235,-0.53176 -3.013319,-0.53176 -2.171361,0 -3.855274,0.97489 -4.608604,2.65881 -4.608604,8.81839 0,2.65881 0.974897,5.00743 0.664702,1.59528 1.861167,2.52587 1.462345,1.15215 3.722334,1.15215 1.639599,0 3.234879,-0.57608 1.41804,-0.48745 2.57019,-1.3294 2.25998,-1.6396 4.34272,-4.83018 v 5.18468 q 0.13294,1.55098 1.68391,1.55098 h 1.90548 1.32941 v -13.42699 q 0,-4.9188 -0.3102,-7.57761 z m -5.62781,13.4713 q -2.92469,4.87449 -6.5584,4.43135 -3.67802,-0.44313 -4.076841,-5.53919 -0.221568,-2.88037 0.664702,-5.14036 0.354508,-0.9749 1.373719,-1.90548 1.01921,-0.9749 1.99411,-1.10784 1.6396,-0.22157 3.50076,0.88627 1.10784,0.62039 2.34862,1.99411 1.28509,1.37372 1.68391,2.52587 0.13294,0.39882 0.13294,0.84195 0,1.24078 -1.06352,3.01332 z"
        style="font-style:normal;font-variant:normal;font-weight:normal;font-stretch:normal;font-family:Aubrey;-inkscape-font-specification:Aubrey;fill:url(#linearGradient843);fill-opacity:1;stroke-width:1.03859"
        id="path864"/>
    </g>
  </g>
</svg>
