<?xml version="1.0" encoding="UTF-8" standalone="no"?>
<svg
  xmlns:dc="http://purl.org/dc/elements/1.1/"
  xmlns:cc="http://creativecommons.org/ns#"
  xmlns:rdf="http://www.w3.org/1999/02/22-rdf-syntax-ns#"
  xmlns:svg="http://www.w3.org/2000/svg"
  xmlns="http://www.w3.org/2000/svg"
  xmlns:xlink="http://www.w3.org/1999/xlink"
  xmlns:sodipodi="http://sodipodi.sourceforge.net/DTD/sodipodi-0.dtd"
  xmlns:inkscape="http://www.inkscape.org/namespaces/inkscape"
  width="157.12698mm"
  height="23.156443mm"
  viewBox="0 0 157.12698 23.156443"
  version="1.1"
  id="svg8"
  inkscape:version="1.0.1 (3bc2e813f5, 2020-09-07)"
  sodipodi:docname="amalinowska_name.svg">
  <defs
    id="defs2">
    <linearGradient
      inkscape:collect="always"
      id="linearGradient841">
      <stop
        style="stop-color:#034863;stop-opacity:1"
        offset="0"
        id="stop837"/>
      <stop
        style="stop-color:#0691c7;stop-opacity:1"
        offset="0.52104378"
        id="stop867"/>
      <stop
        style="stop-color:#64b4f3;stop-opacity:1"
        offset="1"
        id="stop839"/>
    </linearGradient>
    <linearGradient
      inkscape:collect="always"
      xlink:href="#linearGradient841"
      id="linearGradient843"
      x1="27.214285"
      y1="38.553574"
      x2="184.2634"
      y2="39.309525"
      gradientUnits="userSpaceOnUse"/>
  </defs>
  <sodipodi:namedview
    id="base"
    pagecolor="#ffffff"
    bordercolor="#666666"
    borderopacity="1.0"
    inkscape:pageopacity="0.0"
    inkscape:pageshadow="2"
    inkscape:zoom="0.49497475"
    inkscape:cx="-239.47263"
    inkscape:cy="367.10105"
    inkscape:document-units="mm"
    inkscape:current-layer="layer1"
    inkscape:document-rotation="0"
    showgrid="false"
    fit-margin-top="0"
    fit-margin-left="0"
    fit-margin-right="0"
    fit-margin-bottom="0"
    inkscape:window-width="1858"
    inkscape:window-height="1057"
    inkscape:window-x="54"
    inkscape:window-y="-8"
    inkscape:window-maximized="1"/>
  <metadata
    id="metadata5">
    <rdf:RDF>
      <cc:Work
        rdf:about="">
        <dc:format>image/svg+xml</dc:format>
        <dc:type
          rdf:resource="http://purl.org/dc/dcmitype/StillImage"/>
        <dc:title/>
      </cc:Work>
    </rdf:RDF>
  </metadata>
  <g
    inkscape:label="Warstwa 1"
    inkscape:groupmode="layer"
    id="layer1"
    transform="translate(-27.214285,-26.554646)">
    <g
      aria-label="amalinowska"
      id="text835"
      style="font-style:normal;font-variant:normal;font-weight:normal;font-stretch:normal;font-size:26.7087px;line-height:0.25;font-family:Aubrey;-inkscape-font-specification:Aubrey;letter-spacing:0px;word-spacing:0px;fill:url(#linearGradient843);fill-opacity:1;stroke:none;stroke-width:0.625983">
      <path
        d="m 40.06117,36.917621 q -0.186961,-1.62923 -1.04164,-2.750996 -0.934804,-1.255309 -2.4572,-1.575813 -0.560883,-0.133544 -1.282018,-0.160252 -2.05657,-0.08013 -3.872761,1.01493 -0.641009,0.373922 -1.201892,0.774553 -1.095056,0.801261 -1.789483,1.602522 -0.373921,0.454047 -0.373921,0.587591 0,0.08013 0.05342,0.133543 0.21367,0.133544 1.148474,-0.534174 0.854679,-0.6143 1.682648,-1.2286 1.068348,-0.774552 1.789483,-1.01493 0.560883,-0.186961 1.175183,-0.186961 0.721135,0 1.468978,0.240378 1.869609,0.587591 1.869609,4.72744 0,0.507465 -0.02671,1.121765 -0.02671,0.587592 -0.02671,0.614301 0,0.160252 -0.133543,0.160252 -0.240379,0 -0.747844,-0.454048 -0.854678,-0.774553 -2.163405,-1.2286 -0.881387,-0.320505 -1.816191,-0.320505 -1.308727,0 -2.323657,0.587592 -2.777705,1.602522 -2.777705,5.315031 0,1.602522 0.587591,3.018083 0.400631,0.961513 1.121766,1.522396 0.881387,0.694426 2.243531,0.694426 0.988221,0 1.949735,-0.347213 0.854678,-0.293796 1.549104,-0.801261 1.362144,-0.988222 2.617453,-2.911248 v 3.124918 q 0.08013,0.934804 1.01493,0.934804 h 1.148475 0.801261 v -8.092736 q 0,-2.964666 -0.186961,-4.567188 z m -3.392005,8.119445 q -1.762774,2.937957 -3.952888,2.67087 -2.216822,-0.267087 -2.4572,-3.338587 -0.133544,-1.736066 0.40063,-3.09821 0.21367,-0.587591 0.82797,-1.148474 0.6143,-0.587591 1.201891,-0.667717 0.988222,-0.133544 2.109988,0.534174 0.667717,0.373922 1.415561,1.201891 0.774552,0.82797 1.01493,1.522396 0.08013,0.240379 0.08013,0.507466 0,0.747843 -0.641009,1.816191 z"
        style="font-style:normal;font-variant:normal;font-weight:normal;font-stretch:normal;font-family:Aubrey;-inkscape-font-specification:Aubrey;fill:url(#linearGradient843);fill-opacity:1;stroke-width:0.625983"
        id="path837"/>
      <path
        d="m 41.636956,32.564103 h 2.27024 q 0.721135,0.106835 0.801261,0.908096 v 7.932484 q 2.67087,-5.769079 3.765926,-7.264767 1.335435,-1.575813 2.48391,-1.575813 0.827969,0 1.62923,0.747844 0.961513,0.881387 1.201892,2.377074 0.347213,2.029861 0.213669,6.223127 0.507466,-1.362143 1.282018,-3.044792 1.575813,-3.365296 3.071501,-4.967818 1.175182,-1.282017 2.270239,-1.282017 1.148474,0 1.923026,1.255308 0.667718,1.095057 0.667718,2.350366 v 13.381059 h -2.083279 q -0.934804,0 -1.01493,-1.121766 V 36.703952 q 0,-0.6143 -0.21367,-1.068348 -0.320504,-0.587592 -0.881387,-0.507466 -0.6143,0.08013 -1.44227,1.335435 -2.243531,3.392005 -3.098209,6.864136 -0.400631,1.148474 -0.427339,2.991375 v 2.377074 q 0.186961,0.82797 -1.121766,0.908096 H 50.824749 V 36.490282 q 0,-1.388852 -0.774552,-1.415561 -0.908096,-0.05342 -1.736066,1.068348 -0.213669,0.267087 -1.121765,1.896318 -0.587592,1.068348 -2.109987,4.433644 -0.320505,0.747844 -0.347214,1.495687 v 4.647314 q -0.18696,0.908096 -0.827969,0.988222 h -2.27024 z"
        style="font-style:normal;font-variant:normal;font-weight:normal;font-stretch:normal;font-family:Aubrey;-inkscape-font-specification:Aubrey;fill:url(#linearGradient843);fill-opacity:1;stroke-width:0.625983"
        id="path839"/>
      <path
        d="m 77.45329,36.917621 q -0.186961,-1.62923 -1.041639,-2.750996 -0.934805,-1.255309 -2.457201,-1.575813 -0.560882,-0.133544 -1.282017,-0.160252 -2.05657,-0.08013 -3.872762,1.01493 -0.641009,0.373922 -1.201891,0.774553 -1.095057,0.801261 -1.789483,1.602522 -0.373922,0.454047 -0.373922,0.587591 0,0.08013 0.05342,0.133543 0.21367,0.133544 1.148474,-0.534174 0.854679,-0.6143 1.682649,-1.2286 1.068348,-0.774552 1.789482,-1.01493 0.560883,-0.186961 1.175183,-0.186961 0.721135,0 1.468979,0.240378 1.869609,0.587591 1.869609,4.72744 0,0.507465 -0.02671,1.121765 -0.02671,0.587592 -0.02671,0.614301 0,0.160252 -0.133543,0.160252 -0.240378,0 -0.747844,-0.454048 -0.854678,-0.774553 -2.163404,-1.2286 -0.881388,-0.320505 -1.816192,-0.320505 -1.308726,0 -2.323657,0.587592 -2.777705,1.602522 -2.777705,5.315031 0,1.602522 0.587592,3.018083 0.40063,0.961513 1.121765,1.522396 0.881387,0.694426 2.243531,0.694426 0.988222,0 1.949735,-0.347213 0.854678,-0.293796 1.549105,-0.801261 1.362143,-0.988222 2.617452,-2.911248 v 3.124918 q 0.08013,0.934804 1.014931,0.934804 h 1.148474 0.801261 v -8.092736 q 0,-2.964666 -0.186961,-4.567188 z m -3.392005,8.119445 q -1.762774,2.937957 -3.952888,2.67087 -2.216822,-0.267087 -2.4572,-3.338587 -0.133543,-1.736066 0.400631,-3.09821 0.213669,-0.587591 0.827969,-1.148474 0.6143,-0.587591 1.201892,-0.667717 0.988222,-0.133544 2.109987,0.534174 0.667718,0.373922 1.415561,1.201891 0.774553,0.82797 1.014931,1.522396 0.08013,0.240379 0.08013,0.507466 0,0.747843 -0.641009,1.816191 z"
        style="font-style:normal;font-variant:normal;font-weight:normal;font-stretch:normal;font-family:Aubrey;-inkscape-font-specification:Aubrey;fill:url(#linearGradient843);fill-opacity:1;stroke-width:0.625983"
        id="path841"/>
      <path
        d="m 82.1807,26.554646 v 21.954551 q 0,0.988222 -1.308726,1.068348 h -1.8429 V 27.542868 q 0,-0.934805 0.881387,-0.988222 z"
        style="font-style:normal;font-variant:normal;font-weight:normal;font-stretch:normal;font-family:Aubrey;-inkscape-font-specification:Aubrey;fill:url(#linearGradient843);fill-opacity:1;stroke-width:0.625983"
        id="path843"/>
      <path
        d="m 86.747877,29.172098 q 0,0.641009 -0.454048,1.095057 -0.454048,0.427339 -1.095056,0.427339 -0.641009,0 -1.095057,-0.427339 -0.427339,-0.454048 -0.427339,-1.095057 0,-0.641009 0.427339,-1.095056 0.454048,-0.454048 1.095057,-0.454048 0.641008,0 1.095056,0.454048 0.454048,0.454047 0.454048,1.095056 z m -0.05342,3.365296 v 16.265599 q 0.133543,0.694426 -0.908096,0.747843 h -2.19011 V 33.552325 q -0.106835,-0.961513 1.068348,-1.014931 z"
        style="font-style:normal;font-variant:normal;font-weight:normal;font-stretch:normal;font-family:Aubrey;-inkscape-font-specification:Aubrey;fill:url(#linearGradient843);fill-opacity:1;stroke-width:0.625983"
        id="path845"/>
      <path
        d="m 88.136696,32.537394 1.949735,-0.02671 q 1.148474,0.08013 1.041639,0.961513 v 6.57034 q 0,0.560883 0.133544,0.560883 0.133543,0 0.373922,-0.480757 0.6143,-1.44227 1.2286,-2.884539 0.747843,-1.682648 1.549105,-2.697579 1.549104,-2.003153 3.392004,-2.003153 1.816192,0 2.991375,1.308727 1.46898,2.109987 1.46898,5.208196 v 10.496519 h -2.24353 q -0.827972,-0.05342 -0.827972,-0.774552 V 36.917621 q 0,-1.041639 -0.507465,-1.709357 -0.480757,-0.694426 -1.255309,-0.694426 -0.6143,0 -1.282018,0.427339 -1.255309,0.82797 -2.377074,2.590744 -0.08013,0.133544 -1.736066,3.151627 -0.881387,1.762774 -0.881387,2.537327 0.05342,4.406935 0,5.5287 0,0.21367 -0.08013,0.400631 -0.21367,0.40063 -0.694426,0.40063 l -2.27024,0.02671 0.02671,-17.040151 z"
        style="font-style:normal;font-variant:normal;font-weight:normal;font-stretch:normal;font-family:Aubrey;-inkscape-font-specification:Aubrey;fill:url(#linearGradient843);fill-opacity:1;stroke-width:0.625983"
        id="path847"/>
      <path
        d="m 110.67881,32.457268 q -3.15163,0 -5.2082,3.018083 -1.81619,2.67087 -1.81619,5.982749 0,3.09821 1.65594,5.528701 1.8429,2.724288 4.83427,2.724288 3.17834,0 5.23491,-3.018083 1.81619,-2.67087 1.81619,-5.982749 0,-3.09821 -1.65594,-5.528701 -1.86961,-2.724288 -4.86098,-2.724288 z m 3.41871,8.600202 q -0.0801,3.311879 -1.25531,5.608827 -1.14847,2.270239 -2.69758,2.243531 -1.5491,-0.05342 -2.59074,-2.403783 -1.04164,-2.350366 -0.96152,-5.635536 0.0801,-3.28517 1.2286,-5.582118 1.17519,-2.296949 2.72429,-2.27024 1.54911,0.05342 2.59075,2.403783 1.04163,2.350366 0.96151,5.635536 z"
        style="font-style:normal;font-variant:normal;font-weight:normal;font-stretch:normal;font-family:Aubrey;-inkscape-font-specification:Aubrey;fill:url(#linearGradient843);fill-opacity:1;stroke-width:0.625983"
        id="path849"/>
      <path
        d="m 117.16898,32.564103 h 2.08328 q 0.72114,-0.08013 1.14847,1.095057 0.21367,0.6143 3.92618,14.128902 l 4.70073,-13.728272 q 0.2938,-0.827969 1.04164,-0.881387 h 1.2286 q 0.50747,-0.106835 0.77456,0.480757 0.10683,0.320504 4.70073,14.716494 l 3.04479,-14.769912 q 0.18696,-0.961513 0.98822,-1.041639 h 2.1367 l -5.87592,17.013442 h -1.94973 q -0.50747,0.21367 -1.14848,-1.415561 -0.29379,-0.82797 -4.35351,-12.633215 l -4.86099,13.060554 q -0.34721,0.934805 -1.17518,0.988222 h -1.94974 z"
        style="font-style:normal;font-variant:normal;font-weight:normal;font-stretch:normal;font-family:Aubrey;-inkscape-font-specification:Aubrey;fill:url(#linearGradient843);fill-opacity:1;stroke-width:0.625983"
        id="path851"/>
      <path
        d="m 155.65619,36.410156 v -2.163405 q 0.0801,-0.667717 -0.48075,-1.148474 -0.45405,-0.40063 -1.17519,-0.480756 -2.75099,-0.347214 -5.39515,0.02671 -1.73607,0.267087 -2.80442,1.121766 -1.33543,1.068348 -1.30872,2.911248 0.0267,1.201891 0.80126,2.243531 0.58759,0.721135 1.62923,1.415561 0.66772,0.427339 1.36214,0.854678 4.19327,2.991375 4.13985,4.540479 -0.0267,1.282018 -1.12176,2.190114 -1.09506,0.908096 -2.40379,0.908096 -1.49568,0 -2.32365,-0.347214 -1.2019,-0.507465 -2.59075,-2.109987 v 2.510618 q 0.13354,0.641009 1.28202,0.667717 0.3205,0 0.96151,0.02671 0.64101,0 0.9081,0.02671 3.392,0 5.12807,-0.293796 1.2286,-0.240378 1.89632,-0.82797 1.20189,-1.095056 1.36214,-2.617452 0.13354,-1.44227 -0.42734,-2.483909 -0.56088,-1.04164 -1.70936,-1.976444 -0.42734,-0.347213 -2.13669,-1.522396 -0.74785,-0.507465 -1.33544,-0.934805 -0.88138,-0.641008 -1.20189,-0.908095 -0.66772,-0.560883 -1.01493,-1.095057 -0.29379,-0.454048 -0.29379,-0.988222 0,-0.747844 0.50746,-1.44227 0.53417,-0.721135 1.28202,-1.01493 0.77455,-0.320505 1.73606,-0.320505 0.9081,0 1.8162,0.293796 1.62923,0.507465 2.91124,2.937957 z"
        style="font-style:normal;font-variant:normal;font-weight:normal;font-stretch:normal;font-family:Aubrey;-inkscape-font-specification:Aubrey;fill:url(#linearGradient843);fill-opacity:1;stroke-width:0.625983"
        id="path853"/>
      <path
        d="m 157.04502,26.554646 v 23.022899 h 2.43049 q 0.58759,-0.160252 0.6143,-0.641009 0.0534,-0.827969 0,-5.875914 0,-0.507465 0.26709,-0.507465 0.18696,0 0.45405,0.240378 0.37392,0.320505 6.59704,6.276545 0.48076,0.454048 1.2019,0.507465 h 2.64416 l -9.1878,-8.760453 9.16109,-8.279698 h -1.33544 q -0.26708,0 -1.09505,0.747844 -0.45405,0.347213 -7.45173,7.505145 -0.58759,0.641009 -0.9081,0.641009 -0.3205,0 -0.3205,-0.560883 -0.0267,-2.403783 0,-13.35435 0,-0.908096 -0.74784,-0.961513 z"
        style="font-style:normal;font-variant:normal;font-weight:normal;font-stretch:normal;font-family:Aubrey;-inkscape-font-specification:Aubrey;fill:url(#linearGradient843);fill-opacity:1;stroke-width:0.625983"
        id="path855"/>
      <path
        d="m 184.15431,36.917621 q -0.18696,-1.62923 -1.04164,-2.750996 -0.9348,-1.255309 -2.4572,-1.575813 -0.56088,-0.133544 -1.28202,-0.160252 -2.05657,-0.08013 -3.87276,1.01493 -0.64101,0.373922 -1.20189,0.774553 -1.09506,0.801261 -1.78948,1.602522 -0.37393,0.454047 -0.37393,0.587591 0,0.08013 0.0534,0.133543 0.21367,0.133544 1.14848,-0.534174 0.85467,-0.6143 1.68264,-1.2286 1.06835,-0.774552 1.78949,-1.01493 0.56088,-0.186961 1.17518,-0.186961 0.72113,0 1.46898,0.240378 1.86961,0.587591 1.86961,4.72744 0,0.507465 -0.0267,1.121765 -0.0267,0.587592 -0.0267,0.614301 0,0.160252 -0.13354,0.160252 -0.24038,0 -0.74785,-0.454048 -0.85468,-0.774553 -2.1634,-1.2286 -0.88139,-0.320505 -1.81619,-0.320505 -1.30873,0 -2.32366,0.587592 -2.77771,1.602522 -2.77771,5.315031 0,1.602522 0.5876,3.018083 0.40063,0.961513 1.12176,1.522396 0.88139,0.694426 2.24353,0.694426 0.98822,0 1.94974,-0.347213 0.85468,-0.293796 1.5491,-0.801261 1.36215,-0.988222 2.61745,-2.911248 v 3.124918 q 0.0801,0.934804 1.01494,0.934804 h 1.14847 0.80126 v -8.092736 q 0,-2.964666 -0.18696,-4.567188 z m -3.39201,8.119445 q -1.76277,2.937957 -3.95288,2.67087 -2.21683,-0.267087 -2.4572,-3.338587 -0.13355,-1.736066 0.40063,-3.09821 0.21367,-0.587591 0.82797,-1.148474 0.6143,-0.587591 1.20189,-0.667717 0.98822,-0.133544 2.10999,0.534174 0.66771,0.373922 1.41556,1.201891 0.77455,0.82797 1.01493,1.522396 0.0801,0.240379 0.0801,0.507466 0,0.747843 -0.64101,1.816191 z"
        style="font-style:normal;font-variant:normal;font-weight:normal;font-stretch:normal;font-family:Aubrey;-inkscape-font-specification:Aubrey;fill:url(#linearGradient843);fill-opacity:1;stroke-width:0.625983"
        id="path857"/>
    </g>
  </g>
</svg>
